<svg width="106" height="107" viewBox="0 0 106 107" fill="none" xmlns="http://www.w3.org/2000/svg">
<g filter="url(#filter0_d_1_252)">
<rect x="27.6522" y="27.6819" width="50.4477" height="50.4477" rx="25.2238" fill="#FF025D"/>
</g>
<path d="M69.7087 41.7835V63.4166L64.9884 66.1416H58.3724L58.3705 66.1426L58.3612 66.147L49.648 70.8136L49.649 66.1416L49.6515 66.1402L58.369 61.4682H64.4323V43.9091H41.0149V61.4682H49.649V66.1416H40.4589L35.7386 63.4166V41.7835L40.1513 39.2357H65.2959L69.7087 41.7835Z" fill="#28023E"/>
<rect x="44.0379" y="50.9036" width="4.10078" height="4.10078" fill="#28023E"/>
<rect x="50.6771" y="50.9036" width="4.05196" height="4.10078" fill="#28023E"/>
<rect x="57.2676" y="50.9036" width="4.10078" height="4.10078" fill="#28023E"/>
<path d="M38.566 96.7381L39.9341 97.0699C39.9196 97.483 39.9773 97.8631 40.1074 98.21C40.2337 98.5561 40.4158 98.865 40.6536 99.1368C40.8868 99.4115 41.1638 99.6422 41.4846 99.829C41.8053 100.016 42.1532 100.155 42.5283 100.246C43.2124 100.412 43.874 100.389 44.5131 100.178C45.1486 99.966 45.7116 99.5632 46.2021 98.9696C46.689 98.3751 47.051 97.5887 47.2882 96.6104C47.5255 95.6321 47.5639 94.7673 47.4035 94.0158C47.2393 93.2634 46.9234 92.6475 46.4556 92.168C45.9841 91.6876 45.4063 91.3645 44.7223 91.1986C44.3471 91.1076 43.9742 91.0717 43.6036 91.0909C43.2329 91.11 42.8815 91.1864 42.5492 91.32C42.2124 91.4564 41.9086 91.6494 41.6378 91.8992C41.3624 92.1517 41.1369 92.463 40.9615 92.8332L39.5934 92.5015C39.8364 91.9491 40.1493 91.4778 40.532 91.0878C40.9147 90.6978 41.3472 90.3918 41.8293 90.17C42.3105 89.9518 42.8232 89.821 43.3671 89.7777C43.9074 89.7335 44.4626 89.7805 45.0326 89.9188C45.9962 90.1524 46.796 90.5956 47.4321 91.2483C48.0682 91.901 48.4961 92.7134 48.7159 93.6857C48.9357 94.658 48.9012 95.7399 48.6122 96.9315C48.3232 98.123 47.8584 99.1006 47.2176 99.8642C46.5769 100.628 45.8243 101.154 44.9599 101.443C44.0955 101.732 43.1815 101.759 42.218 101.525C41.6479 101.387 41.1329 101.175 40.6729 100.888C40.2092 100.6 39.8138 100.247 39.4869 99.8293C39.159 99.415 38.9143 98.9468 38.7528 98.4247C38.5903 97.9064 38.5281 97.3442 38.566 96.7381Z" fill="#FF025D"/>
<path d="M32.4576 85.3411L25.0873 94.3313L23.9986 93.4388L27.2807 89.4354L22.4871 85.5055L19.205 89.5089L18.1163 88.6164L25.4867 79.6262L26.5753 80.5187L23.2788 84.5397L28.0725 88.4696L31.369 84.4486L32.4576 85.3411Z" fill="#FF025D"/>
<path d="M20.0473 72.1411L20.6697 73.4793L8.32854 74.5108L7.71578 73.1931L16.457 64.4205L17.0793 65.7588L9.67065 73.0353L9.70895 73.1176L20.0473 72.1411ZM15.6999 73.5618L13.1914 68.1677L14.3238 67.6412L16.8323 73.0353L15.6999 73.5618Z" fill="#FF025D"/>
<path d="M4.63862 56.4921L3.38993 56.4753L3.50772 47.7572L4.75641 47.774L4.70702 51.4293L15.0825 51.5695L15.0635 52.9771L4.68801 52.8369L4.63862 56.4921Z" fill="#FF025D"/>
<path d="M20.6201 32.2007L9.54916 27.4378L10.441 26.3194L19.3583 30.3233L19.4291 30.2345L13.5696 22.3962L14.5606 21.1536L23.5062 25.122L23.577 25.0332L17.6892 17.2304L18.5811 16.1121L25.6881 25.8455L24.7821 26.9817L15.9396 23.2117L15.883 23.2827L21.5261 31.0646L20.6201 32.2007Z" fill="#FF025D"/>
<path d="M32.0587 7.88311L37.1027 18.3571L35.8344 18.9679L30.7904 8.49391L32.0587 7.88311Z" fill="#FF025D"/>
<path d="M48.5655 4.65337V3.40456L57.2844 3.40456V4.65337L53.6288 4.65337V15.0298H52.2211V4.65337L48.5655 4.65337Z" fill="#FF025D"/>
<path d="M65.4227 16.9251L70.4667 6.45109L71.7351 7.06189L69.4889 11.7261L75.0737 14.4155L77.3198 9.75136L78.5881 10.3622L73.5441 20.8361L72.2758 20.2253L74.5318 15.5407L68.9471 12.8512L66.6911 17.5359L65.4227 16.9251Z" fill="#FF025D"/>
<path d="M89.2856 41.3492L100.619 38.7624L101.493 42.592C101.696 43.4774 101.71 44.2387 101.537 44.8759C101.368 45.5123 101.053 46.0268 100.591 46.4194C100.13 46.812 99.5649 47.0845 98.8972 47.2369C98.2294 47.3893 97.6061 47.388 97.0273 47.2328C96.4484 47.0777 95.947 46.7516 95.5231 46.2545C95.1028 45.7565 94.7924 45.0685 94.592 44.1905L93.8846 41.0914L95.1243 40.8084L95.8215 43.8632C95.9596 44.4683 96.1593 44.9351 96.4206 45.2636C96.6827 45.5958 96.9951 45.8079 97.3577 45.8998C97.7247 45.9946 98.1352 45.9902 98.589 45.8866C99.0428 45.783 99.42 45.6076 99.7207 45.3604C100.021 45.1133 100.221 44.7823 100.321 44.3676C100.424 43.952 100.406 43.438 100.266 42.8256L99.7151 40.4127L89.5989 42.7217L89.2856 41.3492ZM95.5946 45.522L91.1399 49.4732L90.7761 47.8794L95.2409 43.9725L95.5946 45.522Z" fill="#FF025D"/>
<path d="M94.4553 68.7471C93.26 68.4742 92.2762 68.0226 91.5041 67.3922C90.7319 66.7619 90.1956 66.0165 89.8951 65.156C89.5947 64.2956 89.5547 63.3821 89.7754 62.4155C89.996 61.4489 90.4283 60.6431 91.0723 59.9983C91.7164 59.3535 92.523 58.9146 93.4922 58.6816C94.4614 58.4487 95.5437 58.4687 96.7391 58.7415C97.9344 59.0143 98.9182 59.4659 99.6903 60.0963C100.463 60.7267 100.999 61.4721 101.299 62.3325C101.6 63.1929 101.64 64.1065 101.419 65.0731C101.198 66.0397 100.766 66.8454 100.122 67.4903C99.478 68.1351 98.6714 68.574 97.7022 68.8069C96.733 69.0399 95.6507 69.0199 94.4553 68.7471ZM94.7585 67.4189C95.7399 67.6429 96.6056 67.6678 97.3557 67.4935C98.105 67.3229 98.7166 66.9987 99.1905 66.5207C99.6636 66.0465 99.9785 65.4663 100.135 64.78C100.292 64.0938 100.26 63.4326 100.041 62.7963C99.8201 62.1638 99.4098 61.6063 98.8095 61.1238C98.2085 60.645 97.4173 60.2937 96.4359 60.0697C95.4545 59.8457 94.5892 59.819 93.84 59.9895C93.0899 60.1638 92.4783 60.488 92.0051 60.9623C91.5312 61.4402 91.2159 62.0223 91.0593 62.7085C90.9026 63.3948 90.9346 64.0541 91.1551 64.6867C91.3747 65.323 91.7851 65.8805 92.3861 66.3592C92.9863 66.8417 93.7771 67.1949 94.7585 67.4189Z" fill="#FF025D"/>
<path d="M87.7255 84.8375C88.2176 85.1428 88.739 85.2053 89.2895 85.0248C89.8401 84.8443 90.3348 84.4788 90.7736 83.9285C91.0945 83.5262 91.3102 83.1222 91.4207 82.7166C91.5288 82.3139 91.5362 81.9375 91.4429 81.5871C91.3472 81.2398 91.1544 80.9505 90.8644 80.7193C90.6218 80.5258 90.3672 80.4171 90.1006 80.3933C89.8347 80.3748 89.5708 80.4113 89.3092 80.5027C89.0504 80.5965 88.8039 80.7145 88.5695 80.8567C88.338 81.0012 88.1329 81.1401 87.954 81.2734L86.9693 81.9983C86.7184 82.1854 86.4226 82.3803 86.0819 82.583C85.7389 82.7886 85.3665 82.949 84.9648 83.0643C84.5637 83.1849 84.1471 83.2157 83.715 83.1566C83.2829 83.0976 82.8538 82.8982 82.4277 82.5585C81.9366 82.1668 81.5955 81.6842 81.4043 81.1106C81.2107 80.54 81.1929 79.9159 81.3508 79.2384C81.5064 78.5638 81.8626 77.8774 82.4195 77.1792C82.9385 76.5283 83.493 76.0484 84.083 75.7396C84.6705 75.4337 85.2607 75.2945 85.8536 75.322C86.444 75.3524 87.0019 75.548 87.5273 75.9089L86.6213 77.045C86.2545 76.8009 85.8784 76.6898 85.4931 76.7117C85.1084 76.7389 84.7375 76.8641 84.3803 77.0875C84.0236 77.3162 83.7014 77.611 83.4136 77.972C83.0785 78.3921 82.8457 78.8236 82.7152 79.2664C82.5877 79.7117 82.5688 80.1298 82.6586 80.5209C82.7514 80.9144 82.9635 81.2433 83.2949 81.5075C83.5967 81.7482 83.9095 81.8597 84.2333 81.842C84.5572 81.8244 84.888 81.7252 85.2258 81.5444C85.5635 81.3636 85.9042 81.1489 86.2478 80.9001L87.4592 80.0366C88.2296 79.4893 88.9693 79.1596 89.6784 79.0474C90.3874 78.9352 91.0481 79.1233 91.6606 79.6117C92.1694 80.0175 92.5035 80.509 92.6628 81.0862C92.8227 81.6686 92.8213 82.2774 92.6585 82.9124C92.4964 83.5527 92.1841 84.1628 91.7217 84.7427C91.2545 85.3285 90.7342 85.7654 90.1608 86.0535C89.5903 86.344 89.0184 86.4785 88.4451 86.4569C87.8695 86.4383 87.3464 86.2535 86.8761 85.9026L87.7255 84.8375Z" fill="#FF025D"/>
<path d="M72.2104 86.4302L77.2544 96.9042L70.9332 99.9483L70.3914 98.8232L75.4443 96.3898L73.7399 92.8508L69.0144 95.1265L68.4725 94.0014L73.1981 91.7257L71.4839 88.1662L66.3492 90.6389L65.8074 89.5138L72.2104 86.4302Z" fill="#FF025D"/>
<defs>
<filter id="filter0_d_1_252" x="26.1118" y="27.6819" width="53.5285" height="53.5285" filterUnits="userSpaceOnUse" color-interpolation-filters="sRGB">
<feFlood flood-opacity="0" result="BackgroundImageFix"/>
<feColorMatrix in="SourceAlpha" type="matrix" values="0 0 0 0 0 0 0 0 0 0 0 0 0 0 0 0 0 0 127 0" result="hardAlpha"/>
<feOffset dy="1.54039"/>
<feGaussianBlur stdDeviation="0.770194"/>
<feComposite in2="hardAlpha" operator="out"/>
<feColorMatrix type="matrix" values="0 0 0 0 0 0 0 0 0 0 0 0 0 0 0 0 0 0 0.25 0"/>
<feBlend mode="normal" in2="BackgroundImageFix" result="effect1_dropShadow_1_252"/>
<feBlend mode="normal" in="SourceGraphic" in2="effect1_dropShadow_1_252" result="shape"/>
</filter>
</defs>
</svg>
