<svg width="172" height="54" viewBox="0 0 172 54" fill="none" xmlns="http://www.w3.org/2000/svg">
<path d="M70.9096 10.4442L78.2509 31H74.1985L72.6421 26.5658H64.9484L63.392 31H59.3396L66.6809 10.4442H70.9096ZM68.7659 15.6125L66.1817 23.042H71.3794L68.8246 15.6125H68.7659ZM81.1824 31V10.4442H85.2936V31H81.1824ZM113.494 31H108.972L104.567 23.2475H102.012V31H97.9012V10.4442H109.031L112.437 12.4117V21.2801L109.031 23.2475L113.494 31ZM102.012 13.9681V19.7237H108.326V13.9681H102.012ZM133.434 29.1793L130.028 31.1468H120.837L117.43 29.1793V12.2649L120.837 10.2974H130.028L133.434 12.2649V29.1793ZM121.541 13.8212V27.623H129.323V13.8212H121.541ZM138.422 20.5753V12.2649L141.828 10.2974H149.258L152.664 12.2649V16.1705H148.553V13.8212H142.533V18.7253H149.258L152.664 20.6927V29.1793L149.258 31.1468H141.535L138.128 29.1793V25.2737H142.239V27.623H148.553V22.5428H141.828L138.422 20.5753ZM161.776 22.1904V27.4762H169.968V31H157.664V10.4442H169.968V13.9681H161.776V18.6665H168.207V22.1904H161.776Z" fill="#FF025D"/>
<path d="M62.346 41.8554L63.6875 47.1607H62.9447L62.6264 45.9026H60.2769L59.7009 47.1607H58.9581L61.4062 41.8554H62.346ZM61.7927 42.6057L60.5876 45.2205H62.4521L61.8079 42.6057H61.7927ZM69.9937 46.6529L69.0615 47.1607H65.9617L66.5149 41.8554H69.6148L70.4409 42.3632L69.9937 46.6529ZM67.2046 42.5375L66.7878 46.4786H69.251L69.6678 42.5375H67.2046ZM77.4976 41.8554L75.0496 47.1607H74.1098L72.7683 41.8554H73.5338L74.6479 46.3801H74.6631L76.7321 41.8554H77.4976ZM81.6984 41.8554L83.0399 47.1607H82.2972L81.9788 45.9026H79.6293L79.0533 47.1607H78.3106L80.7586 41.8554H81.6984ZM81.1451 42.6057L79.9401 45.2205H81.8045L81.1603 42.6057H81.1451ZM86.4889 43.1514L86.072 47.1607H85.3141L85.8674 41.8554H86.5571L88.8763 45.8647H88.8914L89.3159 41.8554H90.0738L89.5205 47.1607H88.8308L86.504 43.1514H86.4889ZM95.4576 45.8344H96.2155L96.1246 46.6908L95.1923 47.1986H93.199L92.3729 46.6908L92.8352 42.3253L93.7675 41.8175H95.7608L96.5869 42.3253L96.4959 43.1817H95.738L95.8062 42.4996H93.5704L93.146 46.5165H95.3818L95.4576 45.8344ZM99.8159 44.7733L99.634 46.4786H101.9L101.832 47.1607H98.8078L99.3611 41.8554H102.385L102.317 42.5375H100.051L99.8841 44.0912H101.695L101.627 44.7733H99.8159ZM108.366 46.6529L107.433 47.1607H104.333L104.887 41.8554H107.987L108.813 42.3632L108.366 46.6529ZM105.576 42.5375L105.16 46.4786H107.623L108.04 42.5375H105.576ZM117.383 41.8554L118.725 47.1607H117.982L117.664 45.9026H115.314L114.738 47.1607H113.996L116.444 41.8554H117.383ZM116.83 42.6057L115.625 45.2205H117.49L116.845 42.6057H116.83ZM120.999 47.1607L121.552 41.8554H122.31L121.757 47.1607H120.999ZM131.102 45.8344H131.86L131.769 46.6908L130.837 47.1986H128.844L128.018 46.6908L128.48 42.3253L129.412 41.8175H131.406L132.232 42.3253L132.141 43.1817H131.383L131.451 42.4996H129.215L128.791 46.5165H131.027L131.102 45.8344ZM135.461 44.7733L135.211 47.1607H134.453L135.006 41.8554H135.764L135.529 44.0912H138.068L138.303 41.8554H139.061L138.507 47.1607H137.75L138 44.7733H135.461ZM144.168 41.8554L145.509 47.1607H144.767L144.448 45.9026H142.099L141.523 47.1607H140.78L143.228 41.8554H144.168ZM143.615 42.6057L142.41 45.2205H144.274L143.63 42.6057H143.615ZM149.703 42.5375L149.217 47.1607H148.46L148.945 42.5375H147.436L147.505 41.8554H151.279L151.211 42.5375H149.703ZM156.998 44.0306L156.301 44.4095L156.293 44.4247L156.915 44.8036L156.725 46.6529L155.793 47.1607H153.072L153.626 41.8554H156.347L157.173 42.3632L156.998 44.0306ZM154.08 44.7582L153.898 46.4786H155.983L156.165 44.7582H154.08ZM154.315 42.5375L154.149 44.076H156.233L156.4 42.5375H154.315ZM163.503 46.6908L162.571 47.1986H160.35L159.524 46.6908L159.987 42.3253L160.919 41.8175H163.139L163.966 42.3253L163.503 46.6908ZM160.722 42.4996L160.297 46.5165H162.761L163.185 42.4996H160.722ZM168.559 42.5375L168.074 47.1607H167.316L167.801 42.5375H166.293L166.361 41.8554H170.136L170.067 42.5375H168.559Z" fill="#FF025D"/>
<path d="M46.3077 13.9359V43.426L39.873 47.1408H30.8543L30.8516 47.1421L30.839 47.1481L18.9612 53.5095L18.9626 47.1408L18.9659 47.1388L30.8496 40.77H39.1151V16.8335H7.19266V40.77H18.9626V47.1408H6.43466L0 43.426V13.9359L6.0154 10.4627H40.2923L46.3077 13.9359Z" fill="#FF025D"/>
<rect x="11.3131" y="26.3682" width="5.59015" height="5.59015" fill="#FF025D"/>
<rect x="20.3643" y="26.3682" width="5.5236" height="5.59015" fill="#FF025D"/>
<rect x="29.3484" y="26.3682" width="5.59015" height="5.59015" fill="#FF025D"/>
</svg>
